<svg width="46" height="46" viewBox="0 0 46 46" fill="none" xmlns="http://www.w3.org/2000/svg">
<path d="M22.6064 1.35748e-09C18.1353 -4.89856e-05 13.7646 1.32573 10.047 3.8097C6.32944 6.29367 3.43192 9.82425 1.72087 13.955C0.00982813 18.0857 -0.437885 22.6311 0.434351 27.0162C1.30659 31.4014 3.45959 35.4295 6.62111 38.591C9.78263 41.7526 13.8107 43.9056 18.1958 44.7779C22.581 45.6502 27.1264 45.2025 31.2571 43.4915C35.3878 41.7805 38.9185 38.883 41.4025 35.1655C43.8865 31.4479 45.2123 27.0772 45.2123 22.6061C45.2123 16.6107 42.8306 10.8607 38.5912 6.62127C34.3518 2.3818 28.6019 6.56901e-05 22.6064 1.35748e-09ZM33.1145 40.807C29.9328 42.6545 26.3196 43.6289 22.6403 43.6318C18.7028 43.6256 14.8442 42.5263 11.4947 40.4563L15.3986 38.2024C14.0764 37.5949 12.8376 36.8203 11.7126 35.8975L8.20347 37.9235C6.71037 36.5139 5.43113 34.8938 4.40627 33.1145C2.05507 29.0291 1.14472 24.2721 1.82135 19.6072C2.49799 14.9423 4.72236 10.64 8.13742 7.39093C11.5525 4.14185 15.9602 2.13441 20.653 1.69084C25.3458 1.24727 30.0515 2.3933 34.0149 4.94496L30.1567 7.17237C31.4512 7.80186 32.6605 8.59326 33.7555 9.52757L37.2439 7.51367C38.6371 8.8704 39.8361 10.4131 40.807 12.098C42.187 14.4882 43.0827 17.1267 43.443 19.863C43.8032 22.5993 43.621 25.3798 42.9067 28.0457C42.1924 30.7116 40.96 33.2107 39.2798 35.4003C37.5997 37.5899 35.5047 39.4271 33.1145 40.807Z" fill="white"/>
<path d="M30.8041 24.2001C30.9062 23.8189 30.893 23.416 30.7662 23.0424C30.6394 22.6687 30.4046 22.341 30.0916 22.1008C29.7785 21.8606 29.4013 21.7186 29.0075 21.6928C28.6137 21.667 28.2212 21.7585 27.8794 21.9558L19.2217 26.959C18.5582 27.3421 17.8257 27.5907 17.0661 27.6907C16.3065 27.7907 15.5346 27.7401 14.7945 27.5418C14.0545 27.3434 13.3607 27.0013 12.7529 26.5349C12.145 26.0685 11.635 25.4869 11.252 24.8233C10.8689 24.1598 10.6203 23.4273 10.5203 22.6677C10.4203 21.9081 10.4709 21.1362 10.6692 20.3962C10.8675 19.6561 11.2096 18.9623 11.6761 18.3545C12.1425 17.7467 12.7241 17.2366 13.3876 16.8536L30.1569 7.1717C27.7951 6.02351 25.2039 5.42493 22.5778 5.42084C19.0389 5.4316 15.5894 6.53411 12.7003 8.57791C9.81115 10.6217 7.62304 13.5072 6.43458 16.8407C5.24611 20.1741 5.1152 23.7931 6.0597 27.2037C7.0042 30.6143 8.97811 33.6503 11.712 35.8976L29.8745 25.4115C30.1019 25.2811 30.3011 25.1068 30.4607 24.8989C30.6202 24.691 30.737 24.4534 30.8041 24.2001Z" fill="white"/>
<path d="M31.1947 37.4824C33.5738 36.1046 35.588 34.1766 37.0684 31.8599C38.5488 29.5432 39.4523 26.9054 39.7031 24.1676C39.9539 21.4297 39.5446 18.6717 38.5098 16.1246C37.4749 13.5775 35.8445 11.3156 33.7552 9.52856L15.3067 20.1789C14.8484 20.4434 14.514 20.8792 14.3771 21.3903C14.2401 21.9014 14.3118 22.446 14.5764 22.9042C14.8409 23.3625 15.2767 23.6969 15.7878 23.8338C16.2989 23.9708 16.8435 23.8991 17.3017 23.6345L25.958 18.6314C26.6214 18.2482 27.3538 17.9994 28.1134 17.8993C28.873 17.7992 29.6449 17.8497 30.3849 18.0479C31.125 18.2461 31.8188 18.5881 32.4267 19.0544C33.0346 19.5207 33.5447 20.1022 33.9279 20.7656C34.311 21.4291 34.5598 22.1615 34.6599 22.9211C34.76 23.6807 34.7095 24.4525 34.5113 25.1926C34.3132 25.9327 33.9711 26.6265 33.5048 27.2344C33.0385 27.8423 32.457 28.3524 31.7936 28.7355L15.3971 38.2019C16.2887 38.6115 17.2133 38.9448 18.1612 39.1983C20.3392 39.7882 22.6126 39.9403 24.8498 39.6457C27.087 39.3512 29.2436 38.6159 31.1947 37.4824Z" fill="white"/>
</svg>
