<svg width="194" height="52" viewBox="0 0 194 52" fill="none" xmlns="http://www.w3.org/2000/svg">
<path d="M25.8776 1.55391e-09C20.7595 -5.60739e-05 15.7564 1.51757 11.5009 4.36097C7.24533 7.20437 3.92852 11.2458 1.96989 15.9743C0.0112503 20.7027 -0.501247 25.9058 0.497202 30.9255C1.49565 35.9453 3.9602 40.5562 7.5792 44.1752C11.1982 47.7943 15.8091 50.2589 20.8288 51.2574C25.8485 52.2559 31.0516 51.7434 35.7801 49.7849C40.5085 47.8263 44.55 44.5095 47.3935 40.254C50.2369 35.9985 51.7546 30.9954 51.7546 25.8773C51.7546 19.0143 49.0283 12.4323 44.1754 7.57939C39.3226 2.72646 32.7406 7.51956e-05 25.8776 1.55391e-09ZM37.9063 46.7119C34.2641 48.8266 30.1281 49.9421 25.9164 49.9455C21.4091 49.9384 16.9922 48.68 13.158 46.3104L17.6268 43.7304C16.1133 43.035 14.6953 42.1483 13.4075 41.0919L9.39053 43.4111C7.68137 41.7976 6.21703 39.9431 5.04386 37.9063C2.35244 33.2296 1.31036 27.7843 2.08491 22.4444C2.85945 17.1045 5.40569 12.1796 9.31492 8.46042C13.2241 4.74119 18.2696 2.44326 23.6415 1.93551C29.0134 1.42775 34.4 2.73961 38.9369 5.66051L34.5205 8.21022C36.0023 8.9308 37.3866 9.83673 38.64 10.9062L42.6332 8.60091C44.2279 10.154 45.6005 11.9199 46.7119 13.8486C48.2916 16.5846 49.3169 19.605 49.7293 22.7373C50.1417 25.8695 49.9331 29.0523 49.1154 32.104C48.2977 35.1556 46.887 38.0163 44.9637 40.5228C43.0404 43.0292 40.6423 45.1323 37.9063 46.7119Z" fill="white"/>
<path d="M35.2615 27.7018C35.3784 27.2655 35.3634 26.8043 35.2182 26.3766C35.073 25.9489 34.8042 25.5738 34.4459 25.2988C34.0875 25.0238 33.6557 24.8613 33.205 24.8317C32.7542 24.8022 32.3049 24.907 31.9137 25.1328L22.0032 30.86C21.2436 31.2985 20.4052 31.5831 19.5356 31.6975C18.6661 31.812 17.7825 31.7541 16.9354 31.5271C16.0882 31.3001 15.2941 30.9084 14.5983 30.3745C13.9025 29.8406 13.3187 29.1748 12.8802 28.4153C12.4416 27.6558 12.157 26.8173 12.0426 25.9477C11.9281 25.0782 11.986 24.1946 12.213 23.3475C12.4401 22.5003 12.8317 21.7062 13.3656 21.0104C13.8995 20.3146 14.5653 19.7308 15.3248 19.2923L34.5207 8.20941C31.8171 6.89508 28.851 6.20988 25.8449 6.2052C21.7938 6.21752 17.8453 7.47957 14.5381 9.81911C11.2309 12.1586 8.72612 15.4617 7.36569 19.2775C6.00525 23.0933 5.85539 27.2359 6.93657 31.1401C8.01774 35.0442 10.2773 38.5196 13.4068 41.092L34.1974 29.0885C34.4577 28.9392 34.6858 28.7398 34.8684 28.5018C35.0511 28.2638 35.1847 27.9918 35.2615 27.7018Z" fill="white"/>
<path d="M35.7089 42.9062C38.4323 41.3291 40.738 39.1221 42.4326 36.4701C44.1272 33.8182 45.1614 30.7987 45.4484 27.6647C45.7355 24.5307 45.2671 21.3735 44.0825 18.4579C42.8978 15.5422 41.0315 12.9531 38.6399 10.9074L17.5218 23.0988C16.9973 23.4017 16.6145 23.9005 16.4577 24.4856C16.3009 25.0706 16.383 25.694 16.6858 26.2186C16.9887 26.7431 17.4875 27.1259 18.0726 27.2827C18.6576 27.4394 19.281 27.3574 19.8056 27.0545L29.7144 21.3274C30.4738 20.8888 31.3122 20.604 32.1817 20.4894C33.0512 20.3748 33.9348 20.4326 34.7819 20.6595C35.6291 20.8863 36.4233 21.2778 37.1192 21.8116C37.815 22.3454 38.3989 23.011 38.8375 23.7705C39.2762 24.53 39.5609 25.3684 39.6755 26.2379C39.7901 27.1073 39.7323 27.9909 39.5055 28.8381C39.2786 29.6852 38.8871 30.4794 38.3533 31.1753C37.8195 31.8711 37.1539 32.455 36.3944 32.8937L17.6253 43.7299C18.6459 44.1987 19.7044 44.5802 20.7894 44.8705C23.2826 45.5457 25.885 45.7198 28.4459 45.3826C31.0068 45.0455 33.4754 44.2038 35.7089 42.9062Z" fill="white"/>
<path d="M64.2611 33.4102C61.097 33.4102 58.6244 31.8389 58.5195 28.8636H62.3332C62.4381 29.9949 63.1506 30.5395 64.1565 30.5395C65.2038 30.5395 65.8744 30.0158 65.8744 29.1568C65.8744 26.4327 58.5195 27.8993 58.5618 22.6817C58.5618 19.8952 60.8455 18.3438 63.926 18.3438C67.1318 18.3438 69.2902 19.9361 69.4368 22.7444H65.5602C65.4976 21.8014 64.827 21.2357 63.8628 21.2133C63.0037 21.1924 62.3544 21.6324 62.3544 22.5544C62.3544 25.1109 69.6251 23.9581 69.6251 28.8823C69.6251 31.3569 67.6974 33.4102 64.2611 33.4102Z" fill="white"/>
<path d="M81.4451 21.4243H76.0179V24.3999H80.8162V27.1659H76.0179V30.3926H81.4451V33.2636H72.4351V18.5542H81.4451V21.4243Z" fill="white"/>
<path d="M91.1685 18.3864C94.6677 18.3864 97.3079 20.3563 98.1462 23.5408H94.207C93.9385 22.9563 93.5023 22.4649 92.9537 22.1291C92.4052 21.7933 91.7691 21.6283 91.1265 21.6551C88.9267 21.6551 87.4178 23.2896 87.4178 25.8875C87.4178 28.4854 88.9267 30.1205 91.1265 30.1205C91.7691 30.1472 92.4052 29.9822 92.9537 29.6464C93.5023 29.3106 93.9385 28.8192 94.207 28.2348H98.1462C97.3079 31.4193 94.6677 33.3682 91.1685 33.3682C86.8306 33.3682 83.772 30.288 83.772 25.8875C83.772 21.4869 86.8312 18.3864 91.1685 18.3864Z" fill="white"/>
<path d="M100.893 18.5542H104.476V27.3547C104.476 29.0938 105.336 30.0995 107.033 30.0995C108.73 30.0995 109.631 29.0938 109.631 27.3547V18.5542H113.214V27.3337C113.214 31.3989 110.364 33.4102 106.97 33.4102C103.554 33.4102 100.893 31.3989 100.893 27.3337V18.5542Z" fill="white"/>
<path d="M122.352 18.5542C125.956 18.5542 127.758 20.6284 127.758 23.185C127.758 25.0279 126.752 26.7681 124.489 27.4378L127.883 33.263H123.839L120.78 27.71H119.921V33.263H116.338V18.5542H122.352ZM122.142 21.5295H119.921V25.1753H122.142C123.483 25.1753 124.112 24.4841 124.112 23.3324C124.112 22.242 123.483 21.5295 122.142 21.5295Z" fill="white"/>
<path d="M139.619 21.4243H134.192V24.3999H138.99V27.1659H134.192V30.3926H139.619V33.2636H130.609V18.5542H139.619V21.4243Z" fill="white"/>
<path d="M151.501 30.0167H145.132L143.958 33.2645H141.945L147.226 18.743H149.425L154.685 33.2645H152.672L151.501 30.0167ZM148.316 21.0903L145.676 28.4658H150.957L148.316 21.0903Z" fill="white"/>
<path d="M156.008 18.6588H157.914V27.8993C157.914 30.5815 159.36 31.7337 161.519 31.7337C163.677 31.7337 165.102 30.5815 165.102 27.8993V18.6588H167.008V27.8784C167.008 31.6713 164.515 33.4102 161.498 33.4102C158.48 33.4102 156.008 31.6713 156.008 27.8784V18.6588Z" fill="white"/>
<path d="M169.902 18.6588H179.792V20.2094H175.811V33.2636H173.904V20.2094H169.902V18.6588Z" fill="white"/>
<path d="M192.093 26.6428H184.655V33.2644H182.748V18.6588H184.655V25.0707H192.093V18.6588H194V33.2636H192.093V26.6428Z" fill="white"/>
</svg>
